<svg xmlns="http://www.w3.org/2000/svg" viewBox="0 0 536.67 662.5"><defs><style>.cls-1{fill:#448aff;}.cls-2,.cls-4,.cls-7{fill:#fff;}.cls-2{stroke:#448aff;}.cls-2,.cls-3,.cls-6,.cls-7{stroke-miterlimit:10;}.cls-2,.cls-3{stroke-width:40px;}.cls-3,.cls-6{fill:none;}.cls-3,.cls-6,.cls-7{stroke:#fff;}.cls-5{fill:#83b9ff;}.cls-6{stroke-linecap:round;stroke-width:16px;}.cls-7{stroke-width:15px;}</style></defs><g id="Capa_2" data-name="Capa 2"><g id="bolsa"><path class="cls-1" d="M467.67,662.5H69a69,69,0,0,1-69-69V196.22a20,20,0,0,1,20-20H516.67a20,20,0,0,1,20,20V593.5A69,69,0,0,1,467.67,662.5Z"/><path class="cls-2" d="M382.2,176.22V122.3c0-56.5-51-102.3-113.86-102.3h0c-62.89,0-113.87,45.8-113.87,102.3v53.92"/><line class="cls-3" x1="154.47" y1="176.22" x2="154.47" y2="274.48"/><line class="cls-3" x1="382.2" y1="274.48" x2="382.2" y2="176.22"/><circle class="cls-4" cx="153.98" cy="249" r="37.5"/><circle class="cls-4" cx="382.44" cy="249" r="37.5"/><path class="cls-5" d="M420,652.41H456.2a69,69,0,0,0,69-69V565.27"/><path class="cls-6" d="M97.14,407.45l33.46-16.28A20.41,20.41,0,0,1,156.35,398l75.34,109.86a20.41,20.41,0,0,0,25.75,6.81l131.38-63.89"/><path class="cls-7" d="M169.75,417.52,337.5,335.94a12.46,12.46,0,0,1,17.5,8l18,67.85a17.58,17.58,0,0,1-9.31,20.32l-137.9,67.06Z"/><circle class="cls-4" cx="370.05" cy="510.15" r="21.99"/><circle class="cls-4" cx="297.91" cy="545.24" r="21.99"/></g></g></svg>